<svg id="Layer_1" data-name="Layer 1" xmlns="http://www.w3.org/2000/svg" viewBox="0 0 120.47 127.56"><defs><style>.cls-1{fill:#004b88;}.cls-2{fill:#fff;}</style></defs><title>logo-en</title><path class="cls-1" d="M120.47,60.14c0,36.85-31.54,67.42-63.9,67.42,0,0,3.72-9.78,3.67-9.78C27,117.78,0,93.35,0,60.14a60.24,60.24,0,0,1,120.47,0"/><path class="cls-2" d="M92.78,80a7.9,7.9,0,0,0,1.93-.68V76.64a10.75,10.75,0,0,1-2.13.76,9.41,9.41,0,0,1-2.16.24,3.06,3.06,0,0,1-2.29-.83,3.31,3.31,0,0,1-.88-2.3h8.18V72.83a5.78,5.78,0,0,0-1.5-4.23,5.57,5.57,0,0,0-4.18-1.53,5.69,5.69,0,0,0-4.41,1.74,7,7,0,0,0-1.59,4.92,6.4,6.4,0,0,0,1.72,4.79,6.54,6.54,0,0,0,4.79,1.69A12.1,12.1,0,0,0,92.78,80m-1.26-9.76a2.9,2.9,0,0,1,.67,2H87.33a3.18,3.18,0,0,1,.72-2,2.17,2.17,0,0,1,1.72-.7,2.25,2.25,0,0,1,1.75.7M80.35,80a5.86,5.86,0,0,0,1.7-.74v-3a6.5,6.5,0,0,1-1.7.83,6.13,6.13,0,0,1-1.85.27q-2.7,0-2.7-3.72t2.7-3.83a5,5,0,0,1,1.41.21c.46.14,1,.32,1.52.54l1-2.68a8.88,8.88,0,0,0-4-.86,6,6,0,0,0-4.62,1.71,6.92,6.92,0,0,0-1.61,4.93q0,6.51,5.92,6.5a9.92,9.92,0,0,0,2.16-.2M69.88,67.31H66.42V80h3.46Zm-1.72-1.58a2,2,0,0,0,1.41-.45A1.65,1.65,0,0,0,70,64c0-1.13-.63-1.69-1.88-1.69s-1.88.56-1.88,1.69.62,1.7,1.88,1.7M60.24,80l4.83-12.68H61.46L59,74.53a11,11,0,0,0-.51,2.6h-.07a13.09,13.09,0,0,0-.51-2.6L55.48,67.3H51.86L56.69,80h3.55ZM42.83,76.52a5,5,0,0,1-.65-2.81,5.23,5.23,0,0,1,.64-2.85,2,2,0,0,1,1.8-1,2.33,2.33,0,0,1,2,.89,5.14,5.14,0,0,1,.63,2.92v.38a4.47,4.47,0,0,1-.67,2.62,2.37,2.37,0,0,1-1.95.77,2.11,2.11,0,0,1-1.84-.94m4.23,1.82h.14L47.87,80h2.65V62.34H47.06V66.4a14.47,14.47,0,0,0,.25,2.53H47.2a4.13,4.13,0,0,0-3.65-1.86A4.23,4.23,0,0,0,40,68.81a8,8,0,0,0-1.3,4.86A8,8,0,0,0,40,78.48a4.13,4.13,0,0,0,3.51,1.73,4,4,0,0,0,3.6-1.87M33.38,75.15A2.43,2.43,0,0,1,32.66,77a2.66,2.66,0,0,1-1.92.69c-1.12,0-1.68-.49-1.68-1.46a1.71,1.71,0,0,1,.73-1.52A4.34,4.34,0,0,1,32,74.16l1.34,0v1ZM36.81,80V71.54a4.1,4.1,0,0,0-1.36-3.38,6,6,0,0,0-3.91-1.11,10.35,10.35,0,0,0-4.85,1.14l1.14,2.34a8.88,8.88,0,0,1,3.58-.92,1.72,1.72,0,0,1,2,1.93v.55l-2.2.07a8.19,8.19,0,0,0-4.26,1.06,3.35,3.35,0,0,0-1.41,3,4,4,0,0,0,1,3,3.93,3.93,0,0,0,2.88,1,5.71,5.71,0,0,0,2.41-.43,5.1,5.1,0,0,0,1.79-1.52h.09L34.4,80h2.41Z"/><path class="cls-2" d="M101.58,50.85a3.31,3.31,0,0,0-1-1.2,9.82,9.82,0,0,0-2.17-1.12,14.56,14.56,0,0,1-2.16-1,1,1,0,0,1-.5-.81c0-.55.52-.82,1.54-.82a5.46,5.46,0,0,1,1.69.26,16.9,16.9,0,0,1,1.78.67l1-2.5a10.47,10.47,0,0,0-4.46-1,6.34,6.34,0,0,0-3.71.93,3,3,0,0,0-1.31,2.61,3.91,3.91,0,0,0,.31,1.66,3.22,3.22,0,0,0,1,1.2,10.22,10.22,0,0,0,2.15,1.13c.68.29,1.22.54,1.63.76a3.31,3.31,0,0,1,.86.57.91.91,0,0,1,.25.67c0,.72-.63,1.09-1.88,1.09a8.61,8.61,0,0,1-2.13-.31,12,12,0,0,1-2.17-.76v2.86a9.5,9.5,0,0,0,1.83.55,13,13,0,0,0,2.35.19,6.8,6.8,0,0,0,4.06-1,3.51,3.51,0,0,0,1.35-3,3.88,3.88,0,0,0-.32-1.63M90,48a4.82,4.82,0,0,0-1.14-3.45,4.42,4.42,0,0,0-3.36-1.19,5.51,5.51,0,0,0-2.31.46,3.77,3.77,0,0,0-1.59,1.39h-.19l-.46-1.62H78.26V56.24h3.46v-6a6,6,0,0,1,.65-3.22,2.32,2.32,0,0,1,2.09-1,1.8,1.8,0,0,1,1.56.68,3.62,3.62,0,0,1,.49,2.06v7.41H90Zm-16.7,8.27a8,8,0,0,0,1.94-.67V52.89a10.75,10.75,0,0,1-2.13.76,9.49,9.49,0,0,1-2.17.24,3.05,3.05,0,0,1-2.29-.83,3.34,3.34,0,0,1-.87-2.3h8.17V49.08a5.84,5.84,0,0,0-1.49-4.23,6.5,6.5,0,0,0-8.6.22A7.08,7.08,0,0,0,64.23,50,6.4,6.4,0,0,0,66,54.78a6.52,6.52,0,0,0,4.78,1.69,12,12,0,0,0,2.52-.23M72,46.48a2.88,2.88,0,0,1,.67,2H67.82a3.23,3.23,0,0,1,.72-2,2.2,2.2,0,0,1,1.72-.7,2.27,2.27,0,0,1,1.74.7M63,53.6H57l5.72-7.79V43.56H53.3V46.2h5.52L53,54.2v2H63V53.6Zm-12-10H47.52V56.24H51ZM49.25,42a2,2,0,0,0,1.42-.45,1.67,1.67,0,0,0,.47-1.26c0-1.12-.63-1.69-1.89-1.69s-1.88.57-1.88,1.69S48,42,49.25,42m-7.1,11.37a1.35,1.35,0,0,1-.41-1.09V46.16h3.55v-2.6H41.74v-2.7H39.53l-1,2.68L36.62,44.7v1.46h1.66v6.11a4.58,4.58,0,0,0,.94,3.15,3.91,3.91,0,0,0,3,1,7.84,7.84,0,0,0,3.17-.58V53.31a7.34,7.34,0,0,1-2.18.4,1.66,1.66,0,0,1-1.09-.35m-7.41-9.8H31.28V56.24h3.46ZM33,42a2,2,0,0,0,1.41-.45,1.67,1.67,0,0,0,.47-1.26c0-1.12-.63-1.69-1.88-1.69s-1.89.57-1.89,1.69S31.76,42,33,42M27.11,56.26a5.71,5.71,0,0,0,1.7-.73v-3a6.88,6.88,0,0,1-1.7.84,6.13,6.13,0,0,1-1.85.27q-2.7,0-2.7-3.72c0-2.56.9-3.83,2.7-3.83a4.9,4.9,0,0,1,1.41.2c.47.14,1,.32,1.52.54l1-2.67a8.75,8.75,0,0,0-3.95-.86A6.05,6.05,0,0,0,20.64,45,7,7,0,0,0,19,50q0,6.49,5.91,6.5a9.27,9.27,0,0,0,2.16-.21"/></svg>