<svg id="Layer_1" data-name="Layer 1" xmlns="http://www.w3.org/2000/svg" viewBox="0 0 120.47 127.56"><defs><style>.cls-1{fill:#fff;}.cls-2{fill:#004b88;}</style></defs><title>logo-cw</title><path class="cls-1" d="M62.44,59.08a2.18,2.18,0,0,1,.8.1l-.2,2.4a1.89,1.89,0,0,0-.7-.1,2.88,2.88,0,0,0-1.9.6,2.42,2.42,0,0,0-.7,1.7v4.7h-2.5v-9.2h1.9l.4,1.6h.1a3.45,3.45,0,0,1,1.2-1.2,2.65,2.65,0,0,1,1.6-.6"/><path class="cls-2" d="M120.47,60.14c0,36.85-31.54,67.42-63.9,67.42,0,0,3.72-9.78,3.67-9.78C27,117.78,0,93.35,0,60.14a60.24,60.24,0,0,1,120.47,0"/><path class="cls-1" d="M18,56.5q-5.59,0-5.6-6.15a6.56,6.56,0,0,1,1.53-4.68,5.69,5.69,0,0,1,4.36-1.62,8.39,8.39,0,0,1,3.74.82l-1,2.54q-.78-.31-1.44-.51a4.44,4.44,0,0,0-1.34-.2q-2.55,0-2.55,3.63t2.55,3.52A5.8,5.8,0,0,0,20,53.6a6.47,6.47,0,0,0,1.61-.79v2.8a5.26,5.26,0,0,1-1.61.7A9,9,0,0,1,18,56.5"/><path class="cls-1" d="M22.69,44.28h3.59L28.54,51a9.37,9.37,0,0,1,.4,2.08H29A9.71,9.71,0,0,1,29.46,51l2.23-6.76H35.2L30.12,57.82a5.5,5.5,0,0,1-2,2.68,5.07,5.07,0,0,1-3,.93,7.67,7.67,0,0,1-1.66-.18v-2.6a5.73,5.73,0,0,0,1.29.14,2.34,2.34,0,0,0,1.52-.53,3,3,0,0,0,1-1.47l.19-.59Z"/><path class="cls-1" d="M47.1,56.29H43.82v-7a3.34,3.34,0,0,0-.46-2,1.67,1.67,0,0,0-1.47-.65,2.22,2.22,0,0,0-2,.91,5.71,5.71,0,0,0-.61,3v5.65H36v-12h2.5L39,45.82h.18a3.52,3.52,0,0,1,1.51-1.32,5.09,5.09,0,0,1,2.18-.45A4.18,4.18,0,0,1,46,45.19a4.5,4.5,0,0,1,1.09,3.27Z"/><path class="cls-1" d="M51.94,48.21a2.44,2.44,0,0,0,.45,1.55,1.61,1.61,0,0,0,1.36.57,1.59,1.59,0,0,0,1.35-.57,2.5,2.5,0,0,0,.43-1.55c0-1.44-.59-2.17-1.78-2.17s-1.81.73-1.81,2.17M50.75,58a1.2,1.2,0,0,0,.65,1.07,3.55,3.55,0,0,0,1.82.38A6.51,6.51,0,0,0,56,59a1.46,1.46,0,0,0,1-1.32.93.93,0,0,0-.59-.93,4.69,4.69,0,0,0-1.83-.26H52.87a2.56,2.56,0,0,0-1.51.42A1.31,1.31,0,0,0,50.75,58M60,44.28V46l-1.88.48a3.31,3.31,0,0,1,.51,1.8,3.65,3.65,0,0,1-1.34,3,5.91,5.91,0,0,1-3.75,1.08l-.59,0-.48,0a1.07,1.07,0,0,0-.5.86c0,.47.6.71,1.8.71h2a4.62,4.62,0,0,1,3,.85,3,3,0,0,1,1,2.49,3.69,3.69,0,0,1-1.76,3.26,9.08,9.08,0,0,1-5,1.16,7,7,0,0,1-3.84-.87,2.8,2.8,0,0,1-1.33-2.46,2.56,2.56,0,0,1,.68-1.81,3.75,3.75,0,0,1,2-1,2.2,2.2,0,0,1-.88-.71,1.66,1.66,0,0,1-.38-1,1.73,1.73,0,0,1,.4-1.15,4.73,4.73,0,0,1,1.15-.89,3.25,3.25,0,0,1-1.5-1.32,4,4,0,0,1-.55-2.12,3.73,3.73,0,0,1,1.28-3,5.48,5.48,0,0,1,3.65-1.07,9.71,9.71,0,0,1,1.2.09c.46.06.75.1.88.13Z"/><path class="cls-1" d="M63.7,50.26a5.05,5.05,0,0,0,.59,2.7,2.08,2.08,0,0,0,1.9.91A2,2,0,0,0,68.08,53a5.12,5.12,0,0,0,.57-2.7,4.92,4.92,0,0,0-.58-2.67,2.47,2.47,0,0,0-3.79,0,5,5,0,0,0-.58,2.68m8.3,0a6.45,6.45,0,0,1-1.54,4.59,5.62,5.62,0,0,1-4.31,1.65,6.08,6.08,0,0,1-3.05-.75,5,5,0,0,1-2-2.18,7.34,7.34,0,0,1-.71-3.31,6.38,6.38,0,0,1,1.54-4.57,5.62,5.62,0,0,1,4.32-1.63,6.1,6.1,0,0,1,3,.75,5.05,5.05,0,0,1,2,2.16,7.22,7.22,0,0,1,.7,3.29"/><path class="cls-1" d="M80.51,44.06a5.78,5.78,0,0,1,1.11.09l-.25,3.07a3.91,3.91,0,0,0-1-.1,3.45,3.45,0,0,0-2.44.8,2.94,2.94,0,0,0-.88,2.26v6.11H73.81v-12h2.48l.48,2h.16a4.63,4.63,0,0,1,1.51-1.63,3.74,3.74,0,0,1,2.07-.61"/><path class="cls-1" d="M93.05,50.72l-1.27.05a4.16,4.16,0,0,0-2.13.51,1.65,1.65,0,0,0-.7,1.44c0,.93.53,1.39,1.59,1.39a2.5,2.5,0,0,0,1.82-.66,2.28,2.28,0,0,0,.69-1.74Zm1,5.57-.63-1.63h-.09a4.9,4.9,0,0,1-1.7,1.44,5.45,5.45,0,0,1-2.28.4,3.7,3.7,0,0,1-2.73-1,3.77,3.77,0,0,1-1-2.81,3.19,3.19,0,0,1,1.34-2.82,7.73,7.73,0,0,1,4-1l2.09-.07v-.52a1.64,1.64,0,0,0-1.87-1.83,8.56,8.56,0,0,0-3.39.87l-1.08-2.21A9.78,9.78,0,0,1,91.3,44,5.73,5.73,0,0,1,95,45.09a3.87,3.87,0,0,1,1.29,3.2v8Z"/><path class="cls-1" d="M105.47,44.06a5.71,5.71,0,0,1,1.11.09l-.25,3.07a3.91,3.91,0,0,0-1-.1,3.45,3.45,0,0,0-2.44.8,2.93,2.93,0,0,0-.87,2.26v6.11H98.77v-12h2.48l.48,2h.16a4.72,4.72,0,0,1,1.51-1.63,3.76,3.76,0,0,1,2.07-.61"/><path class="cls-1" d="M30,70.37a2.07,2.07,0,0,0-1.77.75,4.27,4.27,0,0,0-.58,2.46v.36a5.08,5.08,0,0,0,.58,2.77,2,2,0,0,0,1.82.84,1.81,1.81,0,0,0,1.6-.93,5,5,0,0,0,.6-2.7,4.76,4.76,0,0,0-.6-2.66A1.89,1.89,0,0,0,30,70.37m1.06-2.62a3.9,3.9,0,0,1,3.33,1.66A7.63,7.63,0,0,1,35.62,74a7.54,7.54,0,0,1-1.24,4.61A4,4,0,0,1,31,80.2a4,4,0,0,1-3.32-1.54h-.22L26.91,80h-2.5V63.56h3.27v3.6c0,.49,0,1.29-.13,2.37h.13a3.81,3.81,0,0,1,3.41-1.78"/><path class="cls-1" d="M40,74a5,5,0,0,0,.59,2.69,2.08,2.08,0,0,0,1.9.92,2.06,2.06,0,0,0,1.89-.91A5.17,5.17,0,0,0,45,74a5,5,0,0,0-.58-2.68,2.46,2.46,0,0,0-3.79,0A4.91,4.91,0,0,0,40,74m8.31,0a6.45,6.45,0,0,1-1.55,4.58,5.59,5.59,0,0,1-4.31,1.66,6,6,0,0,1-3-.76,5,5,0,0,1-2-2.17A7.37,7.37,0,0,1,36.69,74a6.41,6.41,0,0,1,1.54-4.58,5.66,5.66,0,0,1,4.32-1.63,6,6,0,0,1,3,.75,5.07,5.07,0,0,1,2,2.16,7.29,7.29,0,0,1,.71,3.3"/><path class="cls-1" d="M55.77,70.37a2.09,2.09,0,0,0-1.78.75,4.35,4.35,0,0,0-.58,2.46v.36A5.08,5.08,0,0,0,54,76.71a2,2,0,0,0,1.82.84c1.47,0,2.2-1.21,2.2-3.63a5.19,5.19,0,0,0-.54-2.66,1.85,1.85,0,0,0-1.7-.89m1,9.83a4,4,0,0,1-3.32-1.54h-.17c.12,1,.17,1.59.17,1.74v4.87H50.14V68H52.8l.46,1.55h.15a3.82,3.82,0,0,1,3.41-1.78,3.9,3.9,0,0,1,3.33,1.64A7.64,7.64,0,0,1,61.35,74a9.16,9.16,0,0,1-.56,3.34,4.75,4.75,0,0,1-1.61,2.16,4.13,4.13,0,0,1-2.45.74"/><path class="cls-1" d="M68.13,70.08a2.1,2.1,0,0,0-1.64.66,3,3,0,0,0-.67,1.88h4.6a2.77,2.77,0,0,0-.64-1.88,2.15,2.15,0,0,0-1.65-.66m.46,10.12a6.23,6.23,0,0,1-4.53-1.6,6.06,6.06,0,0,1-1.63-4.53,6.7,6.7,0,0,1,1.5-4.67,5.39,5.39,0,0,1,4.18-1.65,5.29,5.29,0,0,1,4,1.45,5.51,5.51,0,0,1,1.42,4V74.8H65.74A3.21,3.21,0,0,0,66.57,77a2.93,2.93,0,0,0,2.17.78,9,9,0,0,0,2.05-.23,9.41,9.41,0,0,0,2-.71v2.53A7.42,7.42,0,0,1,71,80a11.48,11.48,0,0,1-2.38.21"/><path class="cls-1" d="M80.31,77.59a6.81,6.81,0,0,0,2.06-.38v2.44a7.29,7.29,0,0,1-3,.55,3.69,3.69,0,0,1-2.86-1,4.34,4.34,0,0,1-.9-3V70.44H74V69.05l1.8-1.1.94-2.53h2.1V68h3.36v2.46H78.88v5.78a1.31,1.31,0,0,0,.39,1,1.56,1.56,0,0,0,1,.33"/><path class="cls-1" d="M95,80H91.7V73c0-1.73-.64-2.6-1.93-2.6a2.19,2.19,0,0,0-2,.94,5.66,5.66,0,0,0-.61,3V80H83.89V63.27h3.28v3.41c0,.26,0,.89-.08,1.87l-.07,1h.17a3.8,3.8,0,0,1,3.48-1.76,4.25,4.25,0,0,1,3.21,1.14A4.53,4.53,0,0,1,95,72.15Z"/></svg>