<?xml version="1.0" encoding="utf-8"?>
<svg version="1.1" id="Layer_1" xmlns="http://www.w3.org/2000/svg" xmlns:xlink="http://www.w3.org/1999/xlink" x="0px" y="0px"
	 viewBox="0 0 122.6 55.9" style="enable-background:new 0 0 122.6 55.9;" xml:space="preserve">
<g>
	<path fill="#004B88" d="M43.6,26.9c0,10.3-8.8,18.9-17.7,18.9c0,0,1-2.7,1-2.7c-9.2,0-16.7-6.8-16.7-16.1c0-9.3,7.5-16.8,16.7-16.8
		C36.1,10.1,43.6,17.6,43.6,26.9"/>
	<path fill="#004B88" d="M57.2,40.9v-6.5c0-1.2-0.3-2-1.1-2.6c-0.7-0.6-1.7-0.9-3-0.9c-1.4,0-2.6,0.3-3.7,0.9l0.9,1.8
		c1.1-0.5,2-0.7,2.8-0.7c1,0,1.5,0.5,1.5,1.5v0.4l-1.7,0.1c-1.5,0.1-2.6,0.3-3.3,0.8c-0.7,0.5-1.1,1.3-1.1,2.3c0,1,0.3,1.8,0.8,2.3
		c0.5,0.5,1.3,0.8,2.2,0.8c0.8,0,1.4-0.1,1.9-0.3c0.5-0.2,0.9-0.6,1.4-1.2h0.1l0.5,1.3H57.2z M54.5,37.2c0,0.6-0.2,1.1-0.6,1.4
		c-0.4,0.4-0.9,0.5-1.5,0.5c-0.9,0-1.3-0.4-1.3-1.1c0-0.5,0.2-0.9,0.6-1.2c0.4-0.3,1-0.4,1.7-0.4l1,0V37.2z M65.1,39.7h0.1l0.5,1.3
		h2V27.3h-2.7v3.1c0,0.6,0.1,1.2,0.2,2h-0.1c-0.6-1-1.6-1.4-2.8-1.4c-1.2,0-2.1,0.4-2.8,1.3c-0.7,0.9-1,2.1-1,3.8
		c0,1.6,0.3,2.8,1,3.7c0.7,0.9,1.6,1.3,2.7,1.3C63.6,41.1,64.5,40.6,65.1,39.7 M61.8,38.3c-0.3-0.5-0.5-1.2-0.5-2.2
		c0-1,0.2-1.7,0.5-2.2c0.3-0.5,0.8-0.8,1.4-0.8c0.7,0,1.3,0.2,1.6,0.7c0.3,0.5,0.5,1.2,0.5,2.3v0.3c0,1-0.2,1.6-0.5,2
		c-0.3,0.4-0.8,0.6-1.5,0.6C62.6,39,62.2,38.7,61.8,38.3 M75.3,40.9l3.7-9.8h-2.8l-1.9,5.6c-0.2,0.8-0.4,1.4-0.4,2h-0.1
		c-0.1-0.6-0.2-1.3-0.4-2l-1.9-5.6h-2.8l3.7,9.8H75.3z M81.4,29.9c0.5,0,0.8-0.1,1.1-0.3c0.2-0.2,0.4-0.6,0.4-1
		c0-0.9-0.5-1.3-1.5-1.3c-1,0-1.5,0.4-1.5,1.3C79.9,29.5,80.4,29.9,81.4,29.9 M82.7,31.1H80v9.8h2.7V31.1z M90.8,41
		c0.4-0.1,0.9-0.3,1.3-0.6v-2.3c-0.4,0.3-0.9,0.5-1.3,0.6c-0.4,0.1-0.9,0.2-1.4,0.2c-1.4,0-2.1-1-2.1-2.9c0-2,0.7-3,2.1-3
		c0.4,0,0.7,0.1,1.1,0.2c0.4,0.1,0.8,0.2,1.2,0.4l0.8-2.1c-0.9-0.4-1.9-0.7-3-0.7c-1.5,0-2.7,0.4-3.6,1.3c-0.8,0.9-1.2,2.2-1.2,3.8
		c0,3.3,1.5,5,4.6,5C89.8,41.1,90.4,41.1,90.8,41 M99.4,33.4c0.3,0.4,0.5,0.9,0.5,1.5h-3.7c0-0.7,0.2-1.2,0.6-1.5
		c0.3-0.4,0.8-0.5,1.3-0.5C98.6,32.9,99.1,33,99.4,33.4 M100.4,40.9c0.5-0.1,1-0.3,1.5-0.5v-2.1c-0.6,0.3-1.1,0.5-1.6,0.6
		c-0.5,0.1-1.1,0.2-1.7,0.2c-0.8,0-1.3-0.2-1.8-0.6c-0.4-0.4-0.6-1-0.7-1.8h6.3v-1.3c0-1.4-0.4-2.5-1.2-3.3
		c-0.8-0.8-1.8-1.2-3.2-1.2c-1.4,0-2.6,0.4-3.4,1.3c-0.8,0.9-1.2,2.2-1.2,3.8c0,1.6,0.4,2.8,1.3,3.7c0.9,0.9,2.1,1.3,3.7,1.3
		C99.2,41.1,99.9,41.1,100.4,40.9"/>
	<path fill="#004B88" d="M54.7,25.1c0.4-0.1,0.9-0.3,1.3-0.6v-2.3c-0.4,0.3-0.9,0.5-1.3,0.6c-0.4,0.1-0.9,0.2-1.4,0.2
		c-1.4,0-2.1-1-2.1-2.9c0-2,0.7-3,2.1-3c0.4,0,0.7,0.1,1.1,0.2c0.4,0.1,0.8,0.2,1.2,0.4l0.8-2.1c-0.9-0.4-1.9-0.7-3-0.7
		c-1.5,0-2.7,0.4-3.6,1.3c-0.8,0.9-1.2,2.1-1.2,3.8c0,3.3,1.5,5,4.6,5C53.7,25.2,54.2,25.2,54.7,25.1 M59.2,14
		c0.5,0,0.8-0.1,1.1-0.3c0.2-0.2,0.4-0.6,0.4-1c0-0.9-0.5-1.3-1.5-1.3c-1,0-1.5,0.4-1.5,1.3C57.8,13.6,58.3,14,59.2,14 M60.6,15.3
		h-2.7V25h2.7V15.3z M66.3,22.8C66.1,22.6,66,22.4,66,22v-4.7h2.7v-2H66v-2.1h-1.7l-0.8,2.1L62,16.1v1.1h1.3V22
		c0,1.1,0.2,1.9,0.7,2.4c0.5,0.5,1.3,0.8,2.3,0.8c1,0,1.8-0.1,2.5-0.4v-2c-0.7,0.2-1.2,0.3-1.7,0.3C66.8,23.1,66.5,23,66.3,22.8
		 M71.8,14c0.5,0,0.8-0.1,1.1-0.3c0.2-0.2,0.4-0.6,0.4-1c0-0.9-0.5-1.3-1.5-1.3c-1,0-1.5,0.4-1.5,1.3C70.3,13.6,70.8,14,71.8,14
		 M73.1,15.3h-2.7V25h2.7V15.3z M82.4,23h-4.6l4.4-6v-1.7h-7.3v2h4.3l-4.5,6.2V25h7.7V23z M89.4,17.5c0.3,0.4,0.5,0.9,0.5,1.5h-3.7
		c0-0.7,0.2-1.2,0.6-1.5C87,17.2,87.4,17,88,17C88.6,17,89,17.2,89.4,17.5 M90.3,25c0.5-0.1,1-0.3,1.5-0.5v-2.1
		c-0.6,0.3-1.1,0.5-1.6,0.6c-0.5,0.1-1.1,0.2-1.7,0.2c-0.8,0-1.3-0.2-1.8-0.6c-0.4-0.4-0.6-1-0.7-1.8h6.3v-1.3
		c0-1.4-0.4-2.5-1.2-3.3c-0.8-0.8-1.8-1.2-3.2-1.2c-1.4,0-2.6,0.4-3.4,1.3c-0.8,0.9-1.2,2.2-1.2,3.8c0,1.6,0.4,2.8,1.3,3.7
		c0.9,0.9,2.1,1.3,3.7,1.3C89.1,25.2,89.8,25.2,90.3,25 M103.2,18.7c0-1.2-0.3-2-0.9-2.7c-0.6-0.6-1.5-0.9-2.6-0.9
		c-0.7,0-1.3,0.1-1.8,0.4c-0.5,0.2-0.9,0.6-1.2,1.1h-0.1l-0.4-1.3h-2V25h2.7v-4.6c0-1.2,0.2-2,0.5-2.5c0.3-0.5,0.9-0.7,1.6-0.7
		c0.5,0,0.9,0.2,1.2,0.5c0.3,0.4,0.4,0.9,0.4,1.6V25h2.7V18.7z M112.2,20.9c-0.2-0.4-0.4-0.7-0.8-0.9c-0.4-0.3-0.9-0.6-1.7-0.9
		c-0.9-0.3-1.4-0.6-1.7-0.8c-0.3-0.2-0.4-0.4-0.4-0.6c0-0.4,0.4-0.6,1.2-0.6c0.4,0,0.9,0.1,1.3,0.2c0.4,0.1,0.9,0.3,1.4,0.5l0.8-1.9
		c-1.1-0.5-2.3-0.8-3.4-0.8c-1.2,0-2.2,0.2-2.9,0.7c-0.7,0.5-1,1.1-1,2c0,0.5,0.1,0.9,0.2,1.3c0.2,0.3,0.4,0.7,0.8,0.9
		c0.4,0.3,0.9,0.6,1.7,0.9c0.5,0.2,0.9,0.4,1.3,0.6c0.3,0.2,0.5,0.3,0.7,0.4c0.1,0.1,0.2,0.3,0.2,0.5c0,0.6-0.5,0.8-1.5,0.8
		c-0.5,0-1-0.1-1.6-0.2c-0.6-0.2-1.2-0.4-1.7-0.6v2.2c0.4,0.2,0.9,0.3,1.4,0.4c0.5,0.1,1.1,0.1,1.8,0.1c1.4,0,2.4-0.3,3.1-0.8
		c0.7-0.5,1-1.3,1-2.3C112.5,21.7,112.4,21.2,112.2,20.9"/>
</g>
</svg>
