<?xml version="1.0" encoding="UTF-8"?>
<svg xmlns="http://www.w3.org/2000/svg" id="Layer_1" data-name="Layer 1" viewBox="0 -0.5 115 42">
  <defs>
    <style>.cls-1{fill:#004b88;}</style>
  </defs>
  <title>logo-stacked-en</title>
  <path class="cls-1" d="M37.45,18.72c0,11.55-9.87,21.19-19.85,21.19l1.12-3C8.41,36.88,0,29.26,0,18.84a18.73,18.73,0,1,1,37.45-.12"></path>
  <path class="cls-1" d="M100.89,34.45a6.76,6.76,0,0,0,1.67-.59v-2.3a9.7,9.7,0,0,1-1.83.66,8.65,8.65,0,0,1-1.87.2,2.67,2.67,0,0,1-2-.71,2.86,2.86,0,0,1-.75-2h7V28.28a5,5,0,0,0-1.29-3.64,4.8,4.8,0,0,0-3.6-1.32,4.86,4.86,0,0,0-3.79,1.5,6,6,0,0,0-1.38,4.24,5.5,5.5,0,0,0,1.49,4.12,5.61,5.61,0,0,0,4.11,1.46,11,11,0,0,0,2.17-.19M99.81,26a2.53,2.53,0,0,1,.58,1.71H96.21A2.76,2.76,0,0,1,96.83,26a1.9,1.9,0,0,1,1.48-.6,1.94,1.94,0,0,1,1.5.6M90.2,34.46a5,5,0,0,0,1.46-.63V31.28A6,6,0,0,1,90.2,32a5.41,5.41,0,0,1-1.59.23c-1.55,0-2.33-1.07-2.33-3.21s.78-3.29,2.33-3.29a4.28,4.28,0,0,1,1.21.18,13.77,13.77,0,0,1,1.3.46l.88-2.3a7.47,7.47,0,0,0-3.39-.74,5.25,5.25,0,0,0-4,1.46A6,6,0,0,0,83.25,29q0,5.6,5.09,5.6a8,8,0,0,0,1.86-.18m-9-10.93h-3V34.44h3Zm-1.48-1.36a1.67,1.67,0,0,0,1.21-.38,1.43,1.43,0,0,0,.41-1.08c0-1-.54-1.45-1.62-1.45s-1.62.48-1.62,1.45.54,1.46,1.62,1.46M72.9,34.44l4.15-10.91H73.94l-2.1,6.22A9.56,9.56,0,0,0,71.4,32h-.06a10.7,10.7,0,0,0-.44-2.23l-2.11-6.22H65.68l4.16,10.91Zm-15-3A4.29,4.29,0,0,1,57.35,29a4.47,4.47,0,0,1,.55-2.45,1.75,1.75,0,0,1,1.55-.84,2,2,0,0,1,1.76.76A4.43,4.43,0,0,1,61.75,29v.33a3.86,3.86,0,0,1-.58,2.25,2,2,0,0,1-1.68.67,1.85,1.85,0,0,1-1.59-.81M61.54,33h.13l.58,1.41h2.28V19.26h-3v3.49a12.26,12.26,0,0,0,.23,2.18h-.1a3.55,3.55,0,0,0-3.14-1.6,3.61,3.61,0,0,0-3.08,1.49A6.92,6.92,0,0,0,54.33,29a6.86,6.86,0,0,0,1.1,4.14,3.54,3.54,0,0,0,3,1.5A3.4,3.4,0,0,0,61.54,33M49.77,30.28a2,2,0,0,1-.62,1.58,2.26,2.26,0,0,1-1.65.6c-1,0-1.45-.42-1.45-1.26a1.49,1.49,0,0,1,.64-1.31,3.67,3.67,0,0,1,1.93-.46l1.15,0v.89Zm3,4.16V27.17a3.54,3.54,0,0,0-1.17-2.91,5.24,5.24,0,0,0-3.37-1,9,9,0,0,0-4.18,1l1,2a7.69,7.69,0,0,1,3.08-.79,1.48,1.48,0,0,1,1.69,1.66v.48l-1.89.06a7,7,0,0,0-3.66.91A2.88,2.88,0,0,0,43,31.18a3.46,3.46,0,0,0,.9,2.56,3.37,3.37,0,0,0,2.48.9,5,5,0,0,0,2.07-.37A4.36,4.36,0,0,0,50,33h.08l.58,1.48Z"></path>
  <path class="cls-1" d="M114,11.9a2.87,2.87,0,0,0-.88-1,8.51,8.51,0,0,0-1.87-1A12.3,12.3,0,0,1,109.43,9a.86.86,0,0,1-.43-.7c0-.47.44-.71,1.32-.71a4.89,4.89,0,0,1,1.46.23q.7.22,1.53.57l.9-2.14a9,9,0,0,0-3.84-.86,5.47,5.47,0,0,0-3.19.79A2.58,2.58,0,0,0,106,8.46a3.34,3.34,0,0,0,.28,1.43,2.6,2.6,0,0,0,.86,1,9,9,0,0,0,1.84,1c.59.24,1.06.46,1.41.64a3.41,3.41,0,0,1,.74.5.8.8,0,0,1,.21.57c0,.63-.53.94-1.61.94a7.8,7.8,0,0,1-1.83-.26,9.73,9.73,0,0,1-1.87-.66v2.46a7.57,7.57,0,0,0,1.57.48,11.6,11.6,0,0,0,2,.16,5.77,5.77,0,0,0,3.48-.88,3,3,0,0,0,1.17-2.56A3.13,3.13,0,0,0,114,11.9m-10-2.48a4.1,4.1,0,0,0-1-3,3.81,3.81,0,0,0-2.89-1,4.64,4.64,0,0,0-2,.4A3.16,3.16,0,0,0,96.81,7h-.16l-.4-1.4H94V16.53h3V11.4a5.2,5.2,0,0,1,.56-2.77,2,2,0,0,1,1.8-.83,1.51,1.51,0,0,1,1.34.59,3,3,0,0,1,.42,1.77v6.37h3ZM89.67,16.54A7.17,7.17,0,0,0,91.34,16V13.65a9.54,9.54,0,0,1-1.84.66,8.48,8.48,0,0,1-1.86.2,2.66,2.66,0,0,1-2-.71,2.83,2.83,0,0,1-.75-2h7V10.37a5,5,0,0,0-1.28-3.64,5.58,5.58,0,0,0-7.4.19,6.07,6.07,0,0,0-1.37,4.24,5.49,5.49,0,0,0,1.48,4.11,5.61,5.61,0,0,0,4.12,1.46,11,11,0,0,0,2.17-.19M88.59,8.13a2.48,2.48,0,0,1,.57,1.71H85a2.76,2.76,0,0,1,.61-1.71,1.93,1.93,0,0,1,1.48-.6,2,2,0,0,1,1.51.6m-7.78,6.13h-5.1l4.92-6.71V5.62H72.49V7.9h4.76l-5.06,6.88v1.75h8.62V14.26ZM70.49,5.62h-3V16.53h3ZM69,4.27a1.72,1.72,0,0,0,1.22-.39,1.46,1.46,0,0,0,.4-1.08c0-1-.54-1.45-1.62-1.45s-1.62.48-1.62,1.45S67.93,4.27,69,4.27M62.9,14.05a1.11,1.11,0,0,1-.36-.93V7.86h3.05V5.62H62.54V3.3h-1.9l-.86,2.3-1.64,1V7.86h1.42v5.26a3.92,3.92,0,0,0,.82,2.71,3.34,3.34,0,0,0,2.6.9,6.69,6.69,0,0,0,2.73-.5V14a6.7,6.7,0,0,1-1.87.34,1.35,1.35,0,0,1-.94-.31M56.52,5.62h-3V16.53h3ZM55,4.27a1.7,1.7,0,0,0,1.22-.39,1.43,1.43,0,0,0,.4-1.08c0-1-.54-1.45-1.62-1.45s-1.62.48-1.62,1.45S54,4.27,55,4.27M50,16.55a4.9,4.9,0,0,0,1.46-.63V13.37a5.49,5.49,0,0,1-1.46.72,5.41,5.41,0,0,1-1.59.23c-1.55,0-2.32-1.07-2.32-3.2s.77-3.3,2.32-3.3A4.22,4.22,0,0,1,49.57,8c.4.12.84.28,1.31.46l.87-2.3a7.61,7.61,0,0,0-3.39-.74,5.18,5.18,0,0,0-4,1.47A5.93,5.93,0,0,0,43,11.14q0,5.59,5.1,5.59A8,8,0,0,0,50,16.55"></path>
</svg>
