<?xml version="1.0" encoding="UTF-8"?>
<svg xmlns="http://www.w3.org/2000/svg" id="Layer_1" data-name="Layer 1" viewBox="0 -0.5 128 42">
  <defs>
    <style>.cls-1{fill:#004b88;}</style>
  </defs>
  <title>logo-stacked-cw</title>
  <path class="cls-1" d="M37.45,18.72c0,11.55-9.87,21.19-19.85,21.19l1.12-3C8.41,36.89,0,29.26,0,18.84a18.73,18.73,0,1,1,37.45-.12"></path>
  <path class="cls-1" d="M48,16.72q-5,0-5-5.53A5.9,5.9,0,0,1,44.29,7a5.16,5.16,0,0,1,3.93-1.46,7.48,7.48,0,0,1,3.36.74l-.87,2.27q-.69-.27-1.29-.45a4.16,4.16,0,0,0-1.2-.18c-1.53,0-2.3,1.09-2.3,3.26s.77,3.17,2.3,3.17a5.22,5.22,0,0,0,1.57-.23,5.56,5.56,0,0,0,1.45-.71v2.52a4.62,4.62,0,0,1-1.44.62,7.88,7.88,0,0,1-1.84.18"></path>
  <path class="cls-1" d="M52.18,5.74H55.4l2,6.07a8.31,8.31,0,0,1,.35,1.87h.06a8,8,0,0,1,.42-1.87l2-6.07h3.16L58.86,17.91a4.91,4.91,0,0,1-1.8,2.4,4.5,4.5,0,0,1-2.71.84,6.83,6.83,0,0,1-1.5-.17V18.65a5.3,5.3,0,0,0,1.16.12,2.1,2.1,0,0,0,1.37-.48A2.63,2.63,0,0,0,56.29,17l.17-.53Z"></path>
  <path class="cls-1" d="M74.11,16.53H71.17V10.22a3,3,0,0,0-.42-1.75,1.49,1.49,0,0,0-1.32-.58,2,2,0,0,0-1.78.82,5.11,5.11,0,0,0-.55,2.74v5.08H64.15V5.74H66.4l.4,1.38H67a3.15,3.15,0,0,1,1.36-1.19,4.7,4.7,0,0,1,2-.4,3.78,3.78,0,0,1,2.86,1,4.09,4.09,0,0,1,1,2.94Z"></path>
  <path class="cls-1" d="M78.46,9.27a2.25,2.25,0,0,0,.4,1.39,1.47,1.47,0,0,0,1.22.51,1.43,1.43,0,0,0,1.22-.51,2.25,2.25,0,0,0,.39-1.39c0-1.3-.54-1.95-1.61-1.95S78.46,8,78.46,9.27m-1.07,8.78A1.08,1.08,0,0,0,78,19a3.22,3.22,0,0,0,1.63.34,5.78,5.78,0,0,0,2.48-.43,1.33,1.33,0,0,0,.9-1.19.85.85,0,0,0-.53-.84,4.43,4.43,0,0,0-1.64-.23H79.29a2.31,2.31,0,0,0-1.35.38,1.17,1.17,0,0,0-.55,1M85.72,5.74V7.23L84,7.67a2.93,2.93,0,0,1,.47,1.62A3.3,3.3,0,0,1,83.29,12a5.3,5.3,0,0,1-3.37,1l-.53,0-.43,0a1,1,0,0,0-.46.77c0,.42.54.64,1.62.64H82a4.16,4.16,0,0,1,2.7.76,2.7,2.7,0,0,1,.94,2.24A3.32,3.32,0,0,1,84,20.23a8.16,8.16,0,0,1-4.53,1A6.29,6.29,0,0,1,76,20.49a2.49,2.49,0,0,1-1.19-2.21,2.29,2.29,0,0,1,.61-1.63,3.33,3.33,0,0,1,1.78-.93,1.92,1.92,0,0,1-.79-.64,1.46,1.46,0,0,1-.34-.93,1.52,1.52,0,0,1,.36-1,4.14,4.14,0,0,1,1-.8,2.92,2.92,0,0,1-1.35-1.18,3.6,3.6,0,0,1-.49-1.91A3.37,3.37,0,0,1,76.8,6.5a5,5,0,0,1,3.28-1,7.57,7.57,0,0,1,1.08.09c.42,0,.68.09.8.12Z"></path>
  <path class="cls-1" d="M89,11.11a4.5,4.5,0,0,0,.53,2.42,1.87,1.87,0,0,0,1.71.82A1.84,1.84,0,0,0,93,13.54a4.55,4.55,0,0,0,.52-2.43A4.41,4.41,0,0,0,93,8.71a2.23,2.23,0,0,0-3.41,0A4.56,4.56,0,0,0,89,11.11m7.46,0a5.77,5.77,0,0,1-1.39,4.12,5,5,0,0,1-3.87,1.49A5.46,5.46,0,0,1,88.49,16a4.54,4.54,0,0,1-1.82-2,6.47,6.47,0,0,1-.64-3A5.77,5.77,0,0,1,87.41,7a5.06,5.06,0,0,1,3.88-1.47A5.43,5.43,0,0,1,94,6.21a4.58,4.58,0,0,1,1.83,1.94,6.55,6.55,0,0,1,.63,3"></path>
  <path class="cls-1" d="M104.14,5.53a4.58,4.58,0,0,1,1,.09l-.22,2.76a3.59,3.59,0,0,0-.87-.1,3.16,3.16,0,0,0-2.2.73,2.62,2.62,0,0,0-.78,2v5.5h-3V5.74h2.23l.44,1.81h.14a4.05,4.05,0,0,1,1.36-1.46,3.33,3.33,0,0,1,1.86-.56"></path>
  <path class="cls-1" d="M115.4,11.53l-1.14,0a3.61,3.61,0,0,0-1.91.46,1.44,1.44,0,0,0-.63,1.29c0,.83.48,1.25,1.43,1.25a2.29,2.29,0,0,0,1.64-.59,2.11,2.11,0,0,0,.61-1.57Zm.87,5-.57-1.47h-.08a4.38,4.38,0,0,1-1.53,1.3,5,5,0,0,1-2,.36,3.33,3.33,0,0,1-2.45-.89,3.42,3.42,0,0,1-.89-2.53,2.84,2.84,0,0,1,1.2-2.53,6.93,6.93,0,0,1,3.63-.9l1.87-.06V9.34a1.46,1.46,0,0,0-1.68-1.64,7.66,7.66,0,0,0-3,.78l-1-2a8.72,8.72,0,0,1,4.12-1,5.19,5.19,0,0,1,3.34.94,3.5,3.5,0,0,1,1.15,2.88v7.19Z"></path>
  <path class="cls-1" d="M126.57,5.53a4.64,4.64,0,0,1,1,.09l-.22,2.76a3.59,3.59,0,0,0-.87-.1,3.16,3.16,0,0,0-2.2.73,2.62,2.62,0,0,0-.78,2v5.5h-2.95V5.74h2.23l.44,1.81h.14a4.05,4.05,0,0,1,1.36-1.46,3.35,3.35,0,0,1,1.86-.56"></path>
  <path class="cls-1" d="M48.17,25.8a1.88,1.88,0,0,0-1.59.67,3.81,3.81,0,0,0-.52,2.22V29a4.63,4.63,0,0,0,.51,2.49,1.86,1.86,0,0,0,1.64.75,1.62,1.62,0,0,0,1.44-.84A4.45,4.45,0,0,0,50.19,29a4.27,4.27,0,0,0-.54-2.39,1.7,1.7,0,0,0-1.48-.8m.95-2.35a3.48,3.48,0,0,1,3,1.49A6.83,6.83,0,0,1,53.19,29a6.63,6.63,0,0,1-1.12,4.13,3.88,3.88,0,0,1-6,.09h-.2l-.5,1.19H43.11V19.68h3v3.24q0,.66-.12,2.13h.12a3.4,3.4,0,0,1,3.06-1.6"></path>
  <path class="cls-1" d="M57.16,29a4.57,4.57,0,0,0,.52,2.43,1.89,1.89,0,0,0,1.71.82,1.85,1.85,0,0,0,1.7-.82A4.62,4.62,0,0,0,61.61,29a4.45,4.45,0,0,0-.53-2.4,2.21,2.21,0,0,0-3.4,0,4.41,4.41,0,0,0-.52,2.4m7.46,0a5.84,5.84,0,0,1-1.39,4.13,5,5,0,0,1-3.87,1.48A5.33,5.33,0,0,1,56.62,34a4.55,4.55,0,0,1-1.83-2,6.64,6.64,0,0,1-.63-3,5.77,5.77,0,0,1,1.38-4.11,5.08,5.08,0,0,1,3.87-1.46,5.43,5.43,0,0,1,2.74.67A4.52,4.52,0,0,1,64,26.06a6.55,6.55,0,0,1,.64,3"></path>
  <path class="cls-1" d="M71.3,25.8a1.9,1.9,0,0,0-1.6.67,3.89,3.89,0,0,0-.52,2.22V29a4.47,4.47,0,0,0,.52,2.48,1.82,1.82,0,0,0,1.63.76c1.32,0,2-1.09,2-3.26a4.59,4.59,0,0,0-.49-2.39,1.65,1.65,0,0,0-1.52-.8m.86,8.83a3.58,3.58,0,0,1-3-1.38H69q.15,1.35.15,1.56v4.38H66.24V23.65h2.39l.41,1.4h.14a3.4,3.4,0,0,1,3.06-1.6,3.51,3.51,0,0,1,3,1.47A6.86,6.86,0,0,1,76.31,29a8.29,8.29,0,0,1-.5,3A4.23,4.23,0,0,1,74.36,34a3.72,3.72,0,0,1-2.2.66"></path>
  <path class="cls-1" d="M82.4,25.54a1.88,1.88,0,0,0-1.47.6,2.73,2.73,0,0,0-.6,1.68h4.13a2.45,2.45,0,0,0-.57-1.68,1.92,1.92,0,0,0-1.49-.6m.42,9.09a5.58,5.58,0,0,1-4.08-1.44,5.45,5.45,0,0,1-1.46-4.07,6,6,0,0,1,1.35-4.19,4.84,4.84,0,0,1,3.75-1.48,4.72,4.72,0,0,1,3.56,1.3,4.93,4.93,0,0,1,1.28,3.6v1.43h-7a2.85,2.85,0,0,0,.74,2,2.63,2.63,0,0,0,2,.7,8.46,8.46,0,0,0,1.85-.2,9.47,9.47,0,0,0,1.81-.65v2.28a6.57,6.57,0,0,1-1.65.57,10.11,10.11,0,0,1-2.14.19"></path>
  <path class="cls-1" d="M93.35,32.29A6.24,6.24,0,0,0,95.2,32v2.19a6.58,6.58,0,0,1-2.7.49,3.27,3.27,0,0,1-2.57-.89,3.89,3.89,0,0,1-.81-2.68v-5.2H87.71V24.61l1.62-1,.85-2.28h1.88v2.3h3v2.21h-3v5.2a1.17,1.17,0,0,0,.35.93,1.41,1.41,0,0,0,.94.3"></path>
  <path class="cls-1" d="M106.53,34.44h-3v-6.3c0-1.56-.57-2.34-1.73-2.34a2,2,0,0,0-1.79.84,5.2,5.2,0,0,0-.55,2.72v5.08H96.57v-15h2.94v3.06c0,.24,0,.8-.07,1.68l-.06.87h.15a3.41,3.41,0,0,1,3.13-1.58,3.8,3.8,0,0,1,2.88,1,4,4,0,0,1,1,2.93Z"></path>
</svg>
