<svg width="14" height="18" viewBox="0 0 14 18" fill="none" xmlns="http://www.w3.org/2000/svg">
<path d="M13.2035 18C13.4148 18 13.6174 17.9161 13.7667 17.7667C13.9161 17.6174 14 17.4148 14 17.2035V4.09476C14.0002 3.91731 13.9653 3.74157 13.8976 3.57758C13.8298 3.41359 13.7304 3.26456 13.605 3.139L10.7825 0.395044C10.657 0.269506 10.508 0.169984 10.344 0.102191C10.18 0.0343981 10.0042 -0.00033018 9.82673 0H0.79646C0.585226 0 0.382643 0.0839124 0.233278 0.233278C0.0839125 0.382643 0 0.585226 0 0.79646V17.2035C0 17.4148 0.0839125 17.6174 0.233278 17.7667C0.382643 17.9161 0.585226 18 0.79646 18H13.2035ZM12.0064 16H2V2H7V6.20378C7 6.41502 7.08391 6.6176 7.23328 6.76696C7.38264 6.91633 7.58523 7.00024 7.79646 7.00024H12L12.0064 16ZM12 4.99363L9.00318 5V2H9.52726L12 4.39741V4.99363Z" fill="#004B88"/>
</svg>
