<svg width="16" height="18" viewBox="0 0 16 18" fill="none" xmlns="http://www.w3.org/2000/svg">
<path d="M9.71484 15.0029H10.2922C10.6873 15.0029 11 14.7345 11 14.3081V6.70625C11 6.26414 10.6873 6.01151 10.2922 6.01151H9.71484C9.3198 6.01151 9.00705 6.27993 9.00705 6.70625V14.3081C9.00705 14.7503 9.3198 15.0029 9.71484 15.0029Z" fill="#004B88"/>
<path d="M5.71141 15.0029H6.28877C6.68382 15.0029 6.99657 14.7345 6.99657 14.3081V6.70625C6.99657 6.26414 6.68382 6.01151 6.28877 6.01151H5.71141C5.31636 6.01151 5.00362 6.27993 5.00362 6.70625V14.3081C5.00362 14.7503 5.31636 15.0029 5.71141 15.0029Z" fill="#004B88"/>
<path d="M15.2258 3H13.2835H12.0078L12.0078 0.757899C12.0078 0.331583 11.6621 3.8147e-06 11.2177 3.8147e-06L4.81486 0C4.37043 0 4.02476 0.331579 4.02476 0.757895L4.02476 3L2.48551 3H0.773635C0.345667 3 0 3.34737 0 3.7579L0 4.24602C0 4.67233 0.345667 5.00391 0.773635 5.00391H2.01369L2.01369 17.2579C2.01369 17.6684 2.35936 18 2.78733 18H13.2272C13.6551 18 14.0008 17.6684 14.0008 17.2579L14.0008 5.00391H15.2258C15.6538 5.00391 15.9994 4.67233 15.9994 4.24602V3.7579C16.0159 3.34737 15.6702 3 15.2258 3ZM6 2L9.99609 2L9.99609 3L6 3L6 2ZM12.0078 16.0039H4.00779L4.00779 5.00391H12.0078L12.0078 16.0039Z" fill="#004B88"/>
</svg>
