<svg width="20" height="14" viewBox="0 0 20 14" fill="none" xmlns="http://www.w3.org/2000/svg">
<path d="M19.1071 0H0.892857C0.392857 0 0 0.394872 0 0.897436V13.1026C0 13.6051 0.392857 14 0.892857 14H19.1071C19.6071 14 20 13.6051 20 13.1026V0.897436C20 0.394872 19.6071 0 19.1071 0ZM10 7.53846L3.75687 2H16.2431L10 7.53846ZM6.14286 7L2 10.6788V3.32125L6.14286 7ZM7.76786 8.4359L9.17857 9.60256C9.41071 9.81795 9.71429 9.90769 10 9.90769C10.3036 9.90769 10.5893 9.8 10.8214 9.60256L12.2321 8.4359L16.2431 12H3.75687L7.76786 8.4359ZM13.8571 7L18 3.32125V10.6967L13.8571 7Z" fill="#004B88"/>
</svg>
