<svg width="16" height="16" viewBox="0 0 16 16" fill="none" xmlns="http://www.w3.org/2000/svg">
<path fill-rule="evenodd" clip-rule="evenodd" d="M8 13.3333C6.70701 13.3333 5.52151 12.8732 4.59831 12.1078C4.38573 11.9316 4.0705 11.9295 3.87523 12.1248L2.69668 13.3033C2.50141 13.4986 2.50042 13.8165 2.70744 13.9992C4.11783 15.2444 5.97067 16 8 16C12.4183 16 16 12.4183 16 8C16 3.58172 12.4183 0 8 0C5.79084 0 3.79084 0.895431 2.34311 2.34315L0.4552 0.455228C0.2872 0.287237 0 0.406216 0 0.64379V6.54477C0 6.79023 0.199022 6.98922 0.444445 6.98922L6.35618 7C6.59378 7 6.7128 6.71276 6.5448 6.54477L4.2288 4.22876C5.19387 3.26362 6.5272 2.66667 8 2.66667C10.9455 2.66667 13.3333 5.05448 13.3333 8C13.3333 10.9455 10.9455 13.3333 8 13.3333Z" fill="#004B88"/>
</svg>
