<svg id="Layer_1" data-name="Layer 1" xmlns="http://www.w3.org/2000/svg" viewBox="0 0 124.72 124.72"><defs><style>.cls-1{fill:#1d1d1b;}</style></defs><title>icon_print-2</title><rect class="cls-1" x="34.02" y="14.48" width="56.69" height="14.17" rx="1.42"/><path class="cls-1" d="M113.9,35.74H10.82A5.16,5.16,0,0,0,5.67,40.9V77a5.16,5.16,0,0,0,5.15,5.16H33.27v26.65a5.15,5.15,0,0,0,5.16,5.15H88.12a5.15,5.15,0,0,0,5.15-5.15V82.13H113.9A5.16,5.16,0,0,0,119.06,77V40.9A5.16,5.16,0,0,0,113.9,35.74Zm-28.81,70H41.45V69.58H85.09Z"/></svg>