<svg id="Layer_1" data-name="Layer 1" xmlns="http://www.w3.org/2000/svg" viewBox="0 0 124.72 124.72"><defs><style>.cls-1{fill:#010101;}</style></defs><title>iconicon_file</title><path class="cls-1" d="M94.9,119.86a13,13,0,0,0,13-13V34a13,13,0,0,0-3.82-9.22L90,10.68a13.07,13.07,0,0,0-9.22-3.82H34.06a13,13,0,0,0-13,13v86.92a13,13,0,0,0,13,13Zm-1.63-13H35.69a1.63,1.63,0,0,1-1.63-1.63V21.53a1.63,1.63,0,0,1,1.63-1.63H64.48V43.8A6.51,6.51,0,0,0,71,50.32H94.9v54.87A1.63,1.63,0,0,1,93.27,106.82ZM94.9,37.29H77.52V19.9h2.61a1.63,1.63,0,0,1,1.16.48L94.43,33.52a1.64,1.64,0,0,1,.47,1.15Z"/></svg>